<svg width="201" height="57" viewBox="0 0 201 57" fill="none" xmlns="http://www.w3.org/2000/svg">
<path d="M1.4192 38.8992H11.1171C11.9009 38.8992 12.5363 38.2638 12.5363 37.48V21.3957L23.6533 13.5901L34.5338 21.3957V37.48C34.5338 38.2638 35.1692 38.8992 35.953 38.8992H45.4143C46.1981 38.8992 46.8335 38.2638 46.8335 37.48V3.4192C46.8335 2.6354 46.1981 2 45.4143 2H1.4192C0.635397 2 0 2.6354 0 3.4192V37.48C0 38.2638 0.635396 38.8992 1.4192 38.8992Z" fill="#0071C2"/>
<path d="M9.63435 49.0343C9.63435 49.5601 9.56576 50.0664 9.43022 50.553C9.29467 51.0397 9.10196 51.4937 8.8521 51.9167C8.60223 52.3397 8.30501 52.7251 7.95879 53.0729C7.61258 53.4208 7.22716 53.7196 6.80256 53.9695C6.37795 54.2194 5.92068 54.4121 5.43565 54.5476C4.95062 54.6832 4.44273 54.7517 3.91687 54.7517H0.472656V43.3168H3.91687C4.44273 43.3168 4.94899 43.3854 5.43565 43.5209C5.92232 43.6565 6.37795 43.8492 6.80256 44.099C7.22716 44.3489 7.61258 44.6477 7.95879 44.9956C8.30501 45.3435 8.60223 45.7289 8.8521 46.1518C9.10196 46.5748 9.29467 47.0288 9.43022 47.5155C9.56576 48.0021 9.63435 48.5084 9.63435 49.0343ZM7.34638 49.0343C7.34638 48.5607 7.25656 48.1165 7.07855 47.7033C6.90054 47.2885 6.65558 46.9259 6.34529 46.614C6.035 46.3021 5.67082 46.0571 5.25274 45.8758C4.83467 45.6946 4.39047 45.6047 3.91687 45.6047H2.77696V52.4621H3.91687C4.39047 52.4621 4.83467 52.374 5.25274 52.1943C5.67082 52.0163 6.035 51.7713 6.34529 51.461C6.65558 51.1508 6.90054 50.7866 7.07855 50.3685C7.25656 49.9521 7.34638 49.5079 7.34638 49.0343Z" fill="#0071C2"/>
<path d="M21.3421 53.5792C20.8097 54.0365 20.2152 54.3876 19.5555 54.6325C18.8957 54.8775 18.213 55 17.5059 55C16.9637 55 16.4411 54.9298 15.9398 54.7893C15.4384 54.6489 14.9664 54.4496 14.5288 54.1916C14.0895 53.9336 13.6894 53.6249 13.3284 53.2624C12.9675 52.9015 12.6572 52.5013 12.3992 52.062C12.1412 51.6227 11.9419 51.1524 11.8015 50.651C11.661 50.148 11.5908 49.6271 11.5908 49.0849C11.5908 48.5427 11.661 48.0185 11.8015 47.5139C11.9419 47.0092 12.1412 46.5373 12.3992 46.098C12.6572 45.6586 12.9659 45.2602 13.3284 44.8976C13.6894 44.5367 14.0895 44.2264 14.5288 43.9684C14.9681 43.7104 15.4384 43.5111 15.9398 43.3707C16.4428 43.2302 16.9637 43.16 17.5059 43.16C18.213 43.16 18.8957 43.2809 19.5555 43.5226C20.2152 43.7643 20.8097 44.117 21.3421 44.5792L20.1303 46.5732C19.7955 46.2123 19.3987 45.9346 18.9414 45.7403C18.4841 45.546 18.0056 45.4496 17.5059 45.4496C17.0013 45.4496 16.5277 45.546 16.0867 45.737C15.6458 45.9281 15.2604 46.1878 14.9305 46.5144C14.6006 46.841 14.341 47.2264 14.1483 47.6706C13.9572 48.1148 13.8608 48.5868 13.8608 49.0865C13.8608 49.5863 13.9572 50.055 14.1483 50.4943C14.3393 50.9336 14.6006 51.3173 14.9305 51.6472C15.2604 51.9771 15.6458 52.2368 16.0867 52.4295C16.5277 52.6206 17.0013 52.7169 17.5059 52.7169C18.0056 52.7169 18.4841 52.6206 18.9414 52.4262C19.3987 52.2319 19.7939 51.9543 20.1303 51.5933L21.3421 53.5792Z" fill="#0071C2"/>
<path d="M35.2383 54.7518H32.9585V46.5862C32.9585 46.4262 32.9275 46.2776 32.8671 46.1404C32.805 46.0016 32.7233 45.8808 32.6205 45.7779C32.5176 45.675 32.3951 45.5933 32.2579 45.5345C32.1191 45.4757 31.9705 45.4463 31.8121 45.4463C31.6537 45.4463 31.5034 45.4757 31.3662 45.5345C31.2274 45.5933 31.1066 45.6733 31.0037 45.7779C30.9008 45.8824 30.8191 46.0032 30.7604 46.1404C30.7016 46.2792 30.6722 46.4278 30.6722 46.5862V54.7518H28.3842V46.5862C28.3842 46.4262 28.3548 46.2776 28.296 46.1404C28.2372 46.0016 28.1572 45.8808 28.0527 45.7779C27.9482 45.675 27.8273 45.5933 27.6901 45.5345C27.5513 45.4757 27.4027 45.4463 27.2443 45.4463C27.0859 45.4463 26.9356 45.4757 26.7985 45.5345C26.6596 45.5933 26.5388 45.6733 26.4359 45.7779C26.333 45.8808 26.2514 46.0032 26.1926 46.1404C26.1338 46.2792 26.1044 46.4278 26.1044 46.5862V54.7518H23.8164V46.5862C23.8164 46.1127 23.9046 45.6684 24.0842 45.2504C24.2622 44.8323 24.5072 44.4681 24.8175 44.1578C25.1278 43.8475 25.492 43.6026 25.91 43.4246C26.3281 43.2466 26.7723 43.1567 27.2459 43.1567C27.6705 43.1567 28.0804 43.2319 28.474 43.3837C28.8676 43.5356 29.2203 43.7545 29.5339 44.0419C29.8475 43.7545 30.2002 43.5356 30.5905 43.3837C30.9808 43.2319 31.3891 43.1567 31.8137 43.1567C32.2873 43.1567 32.7315 43.2466 33.1496 43.4246C33.566 43.6026 33.9318 43.8475 34.2421 44.1578C34.5524 44.4681 34.7974 44.8323 34.9754 45.2504C35.1534 45.6684 35.2416 46.1127 35.2416 46.5862V54.7518H35.2383Z" fill="#0071C2"/>
<path d="M39.9765 54.7517H37.6885V43.3168H39.9765V47.8944H44.5459V43.3168H46.8338V54.7517H44.5459V50.1823H39.9765V54.7517Z" fill="#0071C2"/>
<path d="M16.3844 24.7538C19.9309 21.8008 23.4774 26.7672 23.4774 26.7672C23.4774 26.7672 25.7963 22.8746 29.4792 23.9484C31.7178 24.6011 31.5252 28.3779 30.434 29.9886C27.5242 34.2834 23.4774 36.0287 23.4774 36.0287C23.4774 36.0287 18.1728 33.5021 16.1116 30.257C14.7476 28.1094 14.7964 26.076 16.3844 24.7538Z" fill="#FFAE9C"/>
<path d="M65.4434 15V13.0864H68.2743C68.9912 13.0864 69.6185 12.9388 70.1562 12.6436C70.6939 12.3378 71.1104 11.9108 71.4056 11.3626C71.7114 10.8143 71.8642 10.1659 71.8642 9.41737C71.8642 8.68989 71.7114 8.0573 71.4056 7.51959C71.0999 6.97134 70.6781 6.54962 70.1404 6.25441C69.6027 5.94865 68.9807 5.79578 68.2743 5.79578H65.396V3.88218H68.3059C69.1283 3.88218 69.8874 4.01925 70.5832 4.29337C71.2896 4.56749 71.9011 4.95759 72.4178 5.46367C72.9449 5.9592 73.3508 6.54434 73.6355 7.21911C73.9307 7.89388 74.0783 8.6319 74.0783 9.43318C74.0783 10.2345 73.9307 10.9778 73.6355 11.6631C73.3508 12.3378 72.9502 12.9283 72.4336 13.4343C71.917 13.9299 71.3055 14.3147 70.5991 14.5888C69.9032 14.8629 69.1494 15 68.3375 15H65.4434ZM63.9727 15V3.88218H66.1235V15H63.9727ZM78.7606 15.1581C78.0648 15.1581 77.4374 14.9842 76.8787 14.6363C76.3199 14.2883 75.8823 13.8139 75.566 13.2129C75.2497 12.612 75.0916 11.9372 75.0916 11.1886C75.0916 10.4295 75.2497 9.74948 75.566 9.14852C75.8823 8.54756 76.3199 8.07311 76.8787 7.72518C77.4374 7.37726 78.0648 7.2033 78.7606 7.2033C79.3089 7.2033 79.7991 7.314 80.2314 7.53541C80.6637 7.75681 81.0063 8.06784 81.2594 8.46848C81.5229 8.85858 81.6653 9.30139 81.6864 9.79693V12.5487C81.6653 13.0548 81.5229 13.5029 81.2594 13.893C81.0063 14.2831 80.6637 14.5941 80.2314 14.826C79.7991 15.0474 79.3089 15.1581 78.7606 15.1581ZM79.1402 13.2446C79.72 13.2446 80.1892 13.0548 80.5477 12.6752C80.9062 12.2851 81.0854 11.7843 81.0854 11.1728C81.0854 10.7722 81.001 10.419 80.8324 10.1132C80.6742 9.79693 80.4475 9.55443 80.1523 9.38574C79.8677 9.20651 79.5303 9.11689 79.1402 9.11689C78.7606 9.11689 78.4232 9.20651 78.128 9.38574C77.8434 9.55443 77.6167 9.79693 77.448 10.1132C77.2898 10.419 77.2108 10.7722 77.2108 11.1728C77.2108 11.584 77.2898 11.9477 77.448 12.264C77.6167 12.5698 77.8434 12.8123 78.128 12.9915C78.4232 13.1602 78.7606 13.2446 79.1402 13.2446ZM80.9747 15V12.9441L81.3068 11.0779L80.9747 9.24341V7.36144H83.0306V15H80.9747ZM87.3463 15L83.9778 7.36144H86.2551L88.6748 13.6557H87.5519L89.9874 7.36144H92.1857L88.8329 15H87.3463ZM93.1415 15V7.36144H95.229V15H93.1415ZM94.1852 6.12789C93.8479 6.12789 93.5685 6.01718 93.3471 5.79578C93.1257 5.56383 93.015 5.27916 93.015 4.94178C93.015 4.61494 93.1257 4.33554 93.3471 4.10359C93.5685 3.87164 93.8479 3.75567 94.1852 3.75567C94.5332 3.75567 94.8126 3.87164 95.0234 4.10359C95.2448 4.33554 95.3555 4.61494 95.3555 4.94178C95.3555 5.27916 95.2448 5.56383 95.0234 5.79578C94.8126 6.01718 94.5332 6.12789 94.1852 6.12789ZM99.6895 15.174C99.2573 15.174 98.8303 15.116 98.4085 15C97.9974 14.884 97.6178 14.7259 97.2699 14.5256C96.922 14.3147 96.6215 14.0617 96.3684 13.7664L97.602 12.5171C97.8656 12.8123 98.1713 13.0337 98.5193 13.1813C98.8672 13.3289 99.252 13.4027 99.6737 13.4027C100.011 13.4027 100.264 13.3553 100.433 13.2604C100.612 13.1655 100.702 13.0231 100.702 12.8334C100.702 12.6225 100.607 12.4591 100.417 12.3431C100.238 12.2271 100.001 12.1322 99.7054 12.0584C99.4102 11.9741 99.0991 11.8845 98.7723 11.7896C98.456 11.6842 98.1502 11.5524 97.855 11.3942C97.5598 11.2255 97.3173 10.9989 97.1275 10.7142C96.9483 10.419 96.8587 10.0394 96.8587 9.57552C96.8587 9.09053 96.9747 8.6688 97.2066 8.31033C97.4491 7.95186 97.7918 7.67247 98.2346 7.47215C98.6774 7.27183 99.1993 7.17167 99.8003 7.17167C100.433 7.17167 101.002 7.28237 101.508 7.50378C102.025 7.72518 102.452 8.0573 102.789 8.50011L101.54 9.74948C101.308 9.46481 101.044 9.25922 100.749 9.1327C100.464 9.00618 100.153 8.94293 99.8161 8.94293C99.5103 8.94293 99.2731 8.99037 99.1044 9.08526C98.9463 9.18015 98.8672 9.31194 98.8672 9.48063C98.8672 9.67041 98.9568 9.81801 99.136 9.92344C99.3258 10.0289 99.5683 10.1238 99.8635 10.2081C100.159 10.2819 100.464 10.3715 100.781 10.477C101.108 10.5719 101.413 10.7089 101.698 10.8881C101.993 11.0674 102.23 11.3046 102.41 11.5998C102.599 11.895 102.694 12.2746 102.694 12.7385C102.694 13.487 102.426 14.0827 101.888 14.5256C101.35 14.9578 100.617 15.174 99.6895 15.174ZM69.1283 34.1581C68.3165 34.1581 67.5626 34.0158 66.8668 33.7311C66.1709 33.4359 65.5594 33.03 65.0322 32.5134C64.5156 31.9862 64.115 31.3747 63.8303 30.6789C63.5562 29.983 63.4191 29.2345 63.4191 28.4332C63.4191 27.6319 63.5562 26.8833 63.8303 26.1875C64.115 25.4916 64.5156 24.8854 65.0322 24.3688C65.5594 23.8522 66.1656 23.4462 66.8509 23.151C67.5468 22.8558 68.3059 22.7082 69.1283 22.7082C70.0139 22.7082 70.7941 22.8558 71.4689 23.151C72.1436 23.4357 72.7393 23.8311 73.2559 24.3371L71.801 25.7921C71.4952 25.4547 71.1209 25.1911 70.6781 25.0014C70.2353 24.8116 69.7187 24.7167 69.1283 24.7167C68.6117 24.7167 68.1372 24.8063 67.7049 24.9856C67.2832 25.1542 66.9142 25.4073 66.5979 25.7447C66.2816 26.0715 66.0391 26.4669 65.8704 26.9308C65.7017 27.3841 65.6174 27.8849 65.6174 28.4332C65.6174 28.992 65.7017 29.498 65.8704 29.9514C66.0391 30.4048 66.2816 30.8001 66.5979 31.1375C66.9142 31.4644 67.2832 31.7174 67.7049 31.8966C68.1372 32.0759 68.6117 32.1655 69.1283 32.1655C69.7503 32.1655 70.2828 32.0706 70.7256 31.8808C71.1789 31.691 71.5585 31.4222 71.8642 31.0743L73.3192 32.5292C72.8026 33.0458 72.2016 33.4465 71.5163 33.7311C70.831 34.0158 70.035 34.1581 69.1283 34.1581ZM77.9822 34.1581C77.2126 34.1581 76.5167 33.9842 75.8947 33.6363C75.2832 33.2778 74.7929 32.7981 74.4239 32.1971C74.0654 31.5856 73.8862 30.9056 73.8862 30.157C73.8862 29.4084 74.0654 28.7389 74.4239 28.1485C74.7824 27.5476 75.2726 27.0731 75.8947 26.7252C76.5167 26.3667 77.2073 26.1875 77.9664 26.1875C78.7466 26.1875 79.4425 26.3667 80.054 26.7252C80.676 27.0731 81.1663 27.5476 81.5247 28.1485C81.8832 28.7389 82.0625 29.4084 82.0625 30.157C82.0625 30.9056 81.8832 31.5856 81.5247 32.1971C81.1663 32.7981 80.676 33.2778 80.054 33.6363C79.4425 33.9842 78.7519 34.1581 77.9822 34.1581ZM77.9664 32.2287C78.3565 32.2287 78.6992 32.1444 78.9944 31.9757C79.3001 31.7965 79.5321 31.554 79.6902 31.2482C79.8589 30.9319 79.9433 30.5735 79.9433 30.1728C79.9433 29.7722 79.8589 29.419 79.6902 29.1132C79.5215 28.8075 79.2896 28.5702 78.9944 28.4016C78.6992 28.2223 78.3565 28.1327 77.9664 28.1327C77.5869 28.1327 77.2495 28.2223 76.9543 28.4016C76.6591 28.5702 76.4271 28.8075 76.2584 29.1132C76.0897 29.419 76.0054 29.7722 76.0054 30.1728C76.0054 30.5735 76.0897 30.9319 76.2584 31.2482C76.4271 31.554 76.6591 31.7965 76.9543 31.9757C77.2495 32.1444 77.5869 32.2287 77.9664 32.2287ZM83.3962 34V26.3614H85.468V34H83.3962ZM88.3779 34V29.4928C88.3779 29.05 88.2355 28.7073 87.9509 28.4648C87.6768 28.2118 87.3341 28.0853 86.9229 28.0853C86.6488 28.0853 86.401 28.1432 86.1796 28.2592C85.9582 28.3647 85.7842 28.5228 85.6577 28.7337C85.5312 28.9445 85.468 29.1976 85.468 29.4928L84.6614 29.0974C84.6614 28.507 84.7879 27.9956 85.041 27.5634C85.3045 27.1311 85.6577 26.799 86.1005 26.567C86.5434 26.3245 87.0442 26.2033 87.603 26.2033C88.1301 26.2033 88.6098 26.3245 89.0421 26.567C89.4744 26.799 89.817 27.1311 90.0701 27.5634C90.3231 27.9851 90.4496 28.4964 90.4496 29.0974V34H88.3779ZM93.3595 34V29.4928C93.3595 29.05 93.2172 28.7073 92.9325 28.4648C92.6584 28.2118 92.3158 28.0853 91.9046 28.0853C91.641 28.0853 91.3932 28.1432 91.1613 28.2592C90.9399 28.3647 90.7659 28.5228 90.6394 28.7337C90.5129 28.9445 90.4496 29.1976 90.4496 29.4928L89.2635 29.2081C89.3057 28.5966 89.4691 28.0694 89.7538 27.6266C90.0384 27.1733 90.4127 26.8253 90.8766 26.5829C91.3405 26.3298 91.8571 26.2033 92.4265 26.2033C92.9958 26.2033 93.5071 26.3245 93.9605 26.567C94.4139 26.799 94.7723 27.1364 95.0359 27.5792C95.2995 28.022 95.4313 28.5492 95.4313 29.1607V34H93.3595ZM97.1106 34V26.3614H99.1824V34H97.1106ZM102.092 34V29.4928C102.092 29.05 101.95 28.7073 101.665 28.4648C101.391 28.2118 101.049 28.0853 100.637 28.0853C100.363 28.0853 100.115 28.1432 99.894 28.2592C99.6726 28.3647 99.4987 28.5228 99.3721 28.7337C99.2456 28.9445 99.1824 29.1976 99.1824 29.4928L98.3758 29.0974C98.3758 28.507 98.5023 27.9956 98.7554 27.5634C99.0189 27.1311 99.3721 26.799 99.815 26.567C100.258 26.3245 100.759 26.2033 101.317 26.2033C101.845 26.2033 102.324 26.3245 102.757 26.567C103.189 26.799 103.531 27.1311 103.784 27.5634C104.038 27.9851 104.164 28.4964 104.164 29.0974V34H102.092ZM107.074 34V29.4928C107.074 29.05 106.932 28.7073 106.647 28.4648C106.373 28.2118 106.03 28.0853 105.619 28.0853C105.355 28.0853 105.108 28.1432 104.876 28.2592C104.654 28.3647 104.48 28.5228 104.354 28.7337C104.227 28.9445 104.164 29.1976 104.164 29.4928L102.978 29.2081C103.02 28.5966 103.184 28.0694 103.468 27.6266C103.753 27.1733 104.127 26.8253 104.591 26.5829C105.055 26.3298 105.572 26.2033 106.141 26.2033C106.71 26.2033 107.222 26.3245 107.675 26.567C108.128 26.799 108.487 27.1364 108.75 27.5792C109.014 28.022 109.146 28.5492 109.146 29.1607V34H107.074ZM114.083 34.1581C113.408 34.1581 112.807 34.0158 112.28 33.7311C111.763 33.4465 111.357 33.0511 111.062 32.545C110.767 32.039 110.619 31.4538 110.619 30.7896V26.3614H112.707V30.7421C112.707 31.0584 112.76 31.3326 112.865 31.5645C112.971 31.7859 113.129 31.9546 113.34 32.0706C113.55 32.1866 113.798 32.2446 114.083 32.2446C114.515 32.2446 114.853 32.1128 115.095 31.8492C115.338 31.5856 115.459 31.2166 115.459 30.7421V26.3614H117.531V30.7896C117.531 31.4644 117.383 32.0548 117.088 32.5609C116.803 33.0669 116.397 33.4623 115.87 33.747C115.353 34.0211 114.758 34.1581 114.083 34.1581ZM124.32 34V29.6193C124.32 29.1659 124.178 28.7969 123.893 28.5123C123.608 28.2276 123.239 28.0853 122.786 28.0853C122.491 28.0853 122.227 28.1485 121.995 28.275C121.763 28.4016 121.579 28.5808 121.442 28.8127C121.315 29.0447 121.252 29.3135 121.252 29.6193L120.446 29.2081C120.446 28.6071 120.572 28.0853 120.825 27.6424C121.089 27.1891 121.447 26.8359 121.9 26.5829C122.364 26.3298 122.886 26.2033 123.466 26.2033C124.025 26.2033 124.526 26.3456 124.969 26.6303C125.411 26.9044 125.759 27.2682 126.012 27.7215C126.265 28.1643 126.392 28.644 126.392 29.1607V34H124.32ZM119.18 34V26.3614H121.252V34H119.18ZM128.061 34V26.3614H130.148V34H128.061ZM129.104 25.1279C128.767 25.1279 128.488 25.0172 128.266 24.7958C128.045 24.5638 127.934 24.2792 127.934 23.9418C127.934 23.6149 128.045 23.3355 128.266 23.1036C128.488 22.8716 128.767 22.7557 129.104 22.7557C129.452 22.7557 129.732 22.8716 129.943 23.1036C130.164 23.3355 130.275 23.6149 130.275 23.9418C130.275 24.2792 130.164 24.5638 129.943 24.7958C129.732 25.0172 129.452 25.1279 129.104 25.1279ZM133.106 34V23.1827H135.178V34H133.106ZM131.319 28.1801V26.3614H136.965V28.1801H131.319ZM140.534 34.0633L137.34 26.3614H139.585L141.704 32.2446H140.945L143.144 26.3614H145.405L142.005 34.0633H140.534ZM138.415 37.1946L140.74 32.2762L142.005 34.0633L140.613 37.1946H138.415ZM63.9727 53V41.8822H65.4909L69.9981 49.0937H69.1283L73.6197 41.8822H75.1379V53H73.0029V45.567L73.4141 45.6936L70.2828 50.7227H68.8278L65.6965 45.6936L66.1235 45.567V53H63.9727ZM80.8409 53.1581C80.0396 53.1581 79.3279 52.9895 78.7059 52.6521C78.0838 52.3041 77.5883 51.8297 77.2193 51.2287C76.8608 50.6278 76.6816 49.9425 76.6816 49.1728C76.6816 48.4137 76.8555 47.7389 77.2035 47.1485C77.5619 46.5476 78.0469 46.0731 78.6584 45.7252C79.2699 45.3667 79.95 45.1875 80.6985 45.1875C81.4366 45.1875 82.085 45.3562 82.6438 45.6936C83.2131 46.0204 83.6559 46.4738 83.9722 47.0536C84.2991 47.623 84.4625 48.2714 84.4625 48.9989C84.4625 49.1359 84.4519 49.2782 84.4308 49.4259C84.4203 49.5629 84.3939 49.7211 84.3518 49.9003L77.931 49.9161V48.3663L83.3871 48.3504L82.5489 48.9989C82.5278 48.5455 82.4434 48.1659 82.2958 47.8602C82.1588 47.5544 81.9532 47.3225 81.6791 47.1643C81.4155 46.9956 81.0886 46.9113 80.6985 46.9113C80.2874 46.9113 79.9289 47.0062 79.6231 47.196C79.3174 47.3752 79.0802 47.6335 78.9115 47.9709C78.7533 48.2977 78.6743 48.6878 78.6743 49.1412C78.6743 49.6051 78.7586 50.011 78.9273 50.3589C79.1065 50.6963 79.3596 50.9599 79.6864 51.1497C80.0132 51.3289 80.3928 51.4185 80.8251 51.4185C81.2152 51.4185 81.5684 51.3553 81.8847 51.2287C82.201 51.0917 82.4751 50.8914 82.707 50.6278L83.9248 51.8455C83.5558 52.2778 83.1024 52.6046 82.5647 52.826C82.0375 53.0474 81.4629 53.1581 80.8409 53.1581ZM88.9383 53.1581C88.2425 53.1581 87.6151 52.9842 87.0564 52.6363C86.4976 52.2883 86.06 51.8139 85.7437 51.2129C85.4274 50.612 85.2693 49.9372 85.2693 49.1886C85.2693 48.4295 85.4274 47.7495 85.7437 47.1485C86.06 46.5476 86.4976 46.0731 87.0564 45.7252C87.6151 45.3773 88.2425 45.2033 88.9383 45.2033C89.4866 45.2033 89.9768 45.314 90.4091 45.5354C90.8414 45.7568 91.184 46.0678 91.4371 46.4685C91.7006 46.8586 91.843 47.3014 91.8641 47.7969V50.5487C91.843 51.0548 91.7006 51.5029 91.4371 51.893C91.184 52.2831 90.8414 52.5941 90.4091 52.826C89.9768 53.0474 89.4866 53.1581 88.9383 53.1581ZM89.3179 51.2446C89.8977 51.2446 90.3669 51.0548 90.7254 50.6752C91.0839 50.2851 91.2631 49.7843 91.2631 49.1728C91.2631 48.7722 91.1787 48.419 91.0101 48.1132C90.8519 47.7969 90.6252 47.5544 90.33 47.3857C90.0454 47.2065 89.708 47.1169 89.3179 47.1169C88.9383 47.1169 88.6009 47.2065 88.3057 47.3857C88.0211 47.5544 87.7944 47.7969 87.6257 48.1132C87.4675 48.419 87.3885 48.7722 87.3885 49.1728C87.3885 49.584 87.4675 49.9477 87.6257 50.264C87.7944 50.5698 88.0211 50.8123 88.3057 50.9915C88.6009 51.1602 88.9383 51.2446 89.3179 51.2446ZM91.1524 53V50.9441L91.4845 49.0779L91.1524 47.2434V45.3614H93.2083V53H91.1524ZM95.0411 53V41.5659H97.1128V53H95.0411ZM101.574 53.174C101.141 53.174 100.714 53.116 100.293 53C99.8815 52.884 99.502 52.7259 99.1541 52.5256C98.8061 52.3147 98.5057 52.0617 98.2526 51.7664L99.4862 50.5171C99.7498 50.8123 100.056 51.0337 100.403 51.1813C100.751 51.3289 101.136 51.4027 101.558 51.4027C101.895 51.4027 102.148 51.3553 102.317 51.2604C102.496 51.1655 102.586 51.0231 102.586 50.8334C102.586 50.6225 102.491 50.4591 102.301 50.3431C102.122 50.2271 101.885 50.1322 101.59 50.0584C101.294 49.9741 100.983 49.8845 100.656 49.7896C100.34 49.6842 100.034 49.5524 99.7392 49.3942C99.444 49.2255 99.2015 48.9989 99.0117 48.7142C98.8325 48.419 98.7429 48.0394 98.7429 47.5755C98.7429 47.0905 98.8589 46.6688 99.0908 46.3103C99.3333 45.9519 99.676 45.6725 100.119 45.4721C100.562 45.2718 101.083 45.1717 101.684 45.1717C102.317 45.1717 102.886 45.2824 103.392 45.5038C103.909 45.7252 104.336 46.0573 104.673 46.5001L103.424 47.7495C103.192 47.4648 102.929 47.2592 102.633 47.1327C102.349 47.0062 102.038 46.9429 101.7 46.9429C101.394 46.9429 101.157 46.9904 100.989 47.0853C100.83 47.1801 100.751 47.3119 100.751 47.4806C100.751 47.6704 100.841 47.818 101.02 47.9234C101.21 48.0289 101.452 48.1238 101.748 48.2081C102.043 48.2819 102.349 48.3715 102.665 48.477C102.992 48.5719 103.298 48.7089 103.582 48.8881C103.877 49.0674 104.115 49.3046 104.294 49.5998C104.484 49.895 104.579 50.2746 104.579 50.7385C104.579 51.487 104.31 52.0827 103.772 52.5256C103.234 52.9578 102.502 53.174 101.574 53.174ZM116.339 53L111.152 47.3067C110.762 46.8744 110.472 46.4632 110.282 46.0731C110.092 45.6725 109.997 45.2349 109.997 44.7605C109.997 44.2017 110.135 43.6903 110.409 43.2264C110.693 42.7625 111.078 42.3935 111.563 42.1194C112.059 41.8453 112.623 41.7082 113.255 41.7082C113.751 41.7082 114.194 41.7873 114.584 41.9454C114.974 42.093 115.311 42.2881 115.596 42.5306C115.891 42.7731 116.128 43.0314 116.308 43.3055L114.884 44.634C114.663 44.3282 114.426 44.091 114.173 43.9223C113.92 43.7431 113.624 43.6534 113.287 43.6534C112.928 43.6534 112.628 43.7589 112.386 43.9697C112.143 44.1806 112.022 44.4442 112.022 44.7605C112.022 45.0557 112.085 45.3087 112.212 45.5196C112.338 45.7199 112.512 45.9519 112.733 46.2154L118.791 53H116.339ZM112.623 53.1581C111.864 53.1581 111.199 53.0105 110.63 52.7153C110.071 52.4201 109.634 52.0195 109.317 51.5134C109.012 50.9968 108.859 50.4116 108.859 49.758C108.859 49.0832 109.038 48.477 109.397 47.9393C109.766 47.4016 110.308 46.964 111.025 46.6266L111.959 47.9551C111.6 48.1238 111.326 48.3504 111.136 48.6351C110.957 48.9092 110.867 49.2519 110.867 49.6631C110.867 49.9794 110.941 50.2588 111.089 50.5013C111.236 50.7332 111.447 50.9177 111.721 51.0548C111.995 51.1813 112.312 51.2446 112.67 51.2446C113.124 51.2446 113.503 51.1497 113.809 50.9599C114.115 50.7701 114.357 50.5276 114.536 50.2324L115.928 51.7506C115.717 52.0037 115.443 52.2356 115.106 52.4465C114.768 52.6573 114.389 52.8313 113.967 52.9684C113.545 53.0949 113.097 53.1581 112.623 53.1581ZM122.521 53V41.8822H124.672V53H122.521ZM129.496 53V41.8822H131.647V53H129.496ZM123.882 48.2081V46.3103H130.097V48.2081H123.882ZM137.288 53.1581C136.518 53.1581 135.822 52.9842 135.2 52.6363C134.589 52.2778 134.098 51.7981 133.729 51.1971C133.371 50.5856 133.192 49.9056 133.192 49.157C133.192 48.4084 133.371 47.7389 133.729 47.1485C134.088 46.5476 134.578 46.0731 135.2 45.7252C135.822 45.3667 136.513 45.1875 137.272 45.1875C138.052 45.1875 138.748 45.3667 139.36 45.7252C139.982 46.0731 140.472 46.5476 140.83 47.1485C141.189 47.7389 141.368 48.4084 141.368 49.157C141.368 49.9056 141.189 50.5856 140.83 51.1971C140.472 51.7981 139.982 52.2778 139.36 52.6363C138.748 52.9842 138.057 53.1581 137.288 53.1581ZM137.272 51.2287C137.662 51.2287 138.005 51.1444 138.3 50.9757C138.606 50.7965 138.838 50.554 138.996 50.2482C139.164 49.9319 139.249 49.5735 139.249 49.1728C139.249 48.7722 139.164 48.419 138.996 48.1132C138.827 47.8075 138.595 47.5702 138.3 47.4016C138.005 47.2223 137.662 47.1327 137.272 47.1327C136.892 47.1327 136.555 47.2223 136.26 47.4016C135.965 47.5702 135.733 47.8075 135.564 48.1132C135.395 48.419 135.311 48.7722 135.311 49.1728C135.311 49.5735 135.395 49.9319 135.564 50.2482C135.733 50.554 135.965 50.7965 136.26 50.9757C136.555 51.1444 136.892 51.2287 137.272 51.2287ZM145.96 53.1581C145.285 53.1581 144.684 53.0158 144.157 52.7311C143.64 52.4465 143.234 52.0511 142.939 51.545C142.644 51.039 142.496 50.4538 142.496 49.7896V45.3614H144.584V49.7421C144.584 50.0584 144.636 50.3326 144.742 50.5645C144.847 50.7859 145.005 50.9546 145.216 51.0706C145.427 51.1866 145.675 51.2446 145.96 51.2446C146.392 51.2446 146.729 51.1128 146.972 50.8492C147.214 50.5856 147.336 50.2166 147.336 49.7421V45.3614H149.407V49.7896C149.407 50.4644 149.26 51.0548 148.964 51.5609C148.68 52.0669 148.274 52.4623 147.747 52.747C147.23 53.0211 146.634 53.1581 145.96 53.1581ZM153.682 53.174C153.25 53.174 152.823 53.116 152.401 53C151.99 52.884 151.611 52.7259 151.263 52.5256C150.915 52.3147 150.614 52.0617 150.361 51.7664L151.595 50.5171C151.858 50.8123 152.164 51.0337 152.512 51.1813C152.86 51.3289 153.245 51.4027 153.667 51.4027C154.004 51.4027 154.257 51.3553 154.426 51.2604C154.605 51.1655 154.694 51.0231 154.694 50.8334C154.694 50.6225 154.6 50.4591 154.41 50.3431C154.231 50.2271 153.993 50.1322 153.698 50.0584C153.403 49.9741 153.092 49.8845 152.765 49.7896C152.449 49.6842 152.143 49.5524 151.848 49.3942C151.553 49.2255 151.31 48.9989 151.12 48.7142C150.941 48.419 150.851 48.0394 150.851 47.5755C150.851 47.0905 150.967 46.6688 151.199 46.3103C151.442 45.9519 151.785 45.6725 152.227 45.4721C152.67 45.2718 153.192 45.1717 153.793 45.1717C154.426 45.1717 154.995 45.2824 155.501 45.5038C156.018 45.7252 156.445 46.0573 156.782 46.5001L155.533 47.7495C155.301 47.4648 155.037 47.2592 154.742 47.1327C154.457 47.0062 154.146 46.9429 153.809 46.9429C153.503 46.9429 153.266 46.9904 153.097 47.0853C152.939 47.1801 152.86 47.3119 152.86 47.4806C152.86 47.6704 152.95 47.818 153.129 47.9234C153.319 48.0289 153.561 48.1238 153.856 48.2081C154.151 48.2819 154.457 48.3715 154.774 48.477C155.1 48.5719 155.406 48.7089 155.691 48.8881C155.986 49.0674 156.223 49.3046 156.402 49.5998C156.592 49.895 156.687 50.2746 156.687 50.7385C156.687 51.487 156.418 52.0827 155.881 52.5256C155.343 52.9578 154.61 53.174 153.682 53.174ZM158.084 53V45.3614H160.172V53H158.084ZM159.128 44.1279C158.791 44.1279 158.511 44.0172 158.29 43.7958C158.068 43.5638 157.958 43.2792 157.958 42.9418C157.958 42.6149 158.068 42.3355 158.29 42.1036C158.511 41.8716 158.791 41.7557 159.128 41.7557C159.476 41.7557 159.755 41.8716 159.966 42.1036C160.188 42.3355 160.298 42.6149 160.298 42.9418C160.298 43.2792 160.188 43.5638 159.966 43.7958C159.755 44.0172 159.476 44.1279 159.128 44.1279ZM167.147 53V48.6193C167.147 48.1659 167.004 47.7969 166.72 47.5123C166.435 47.2276 166.066 47.0853 165.613 47.0853C165.318 47.0853 165.054 47.1485 164.822 47.275C164.59 47.4016 164.406 47.5808 164.268 47.8127C164.142 48.0447 164.079 48.3135 164.079 48.6193L163.272 48.2081C163.272 47.6071 163.399 47.0853 163.652 46.6424C163.915 46.1891 164.274 45.8359 164.727 45.5829C165.191 45.3298 165.713 45.2033 166.293 45.2033C166.852 45.2033 167.352 45.3456 167.795 45.6303C168.238 45.9044 168.586 46.2682 168.839 46.7215C169.092 47.1643 169.219 47.644 169.219 48.1607V53H167.147ZM162.007 53V45.3614H164.079V53H162.007ZM174.082 56.3844C173.27 56.3844 172.553 56.2368 171.931 55.9416C171.309 55.6569 170.814 55.251 170.445 54.7238L171.757 53.4112C172.052 53.7591 172.379 54.0227 172.738 54.2019C173.107 54.3917 173.55 54.4866 174.066 54.4866C174.709 54.4866 175.215 54.3232 175.584 53.9963C175.964 53.6695 176.154 53.2161 176.154 52.6363V50.7227L176.502 49.0463L176.17 47.3699V45.3614H178.225V52.6046C178.225 53.3637 178.046 54.0227 177.688 54.5815C177.34 55.1508 176.855 55.5936 176.233 55.9099C175.611 56.2262 174.894 56.3844 174.082 56.3844ZM173.987 52.7944C173.302 52.7944 172.685 52.631 172.137 52.3041C171.588 51.9668 171.156 51.5081 170.84 50.9283C170.534 50.3484 170.381 49.7 170.381 48.983C170.381 48.2661 170.534 47.623 170.84 47.0536C171.156 46.4843 171.588 46.0362 172.137 45.7094C172.685 45.372 173.302 45.2033 173.987 45.2033C174.556 45.2033 175.057 45.314 175.489 45.5354C175.932 45.7568 176.28 46.0626 176.533 46.4527C176.786 46.8322 176.923 47.2803 176.944 47.7969V50.2008C176.923 50.7069 176.781 51.1602 176.517 51.5609C176.264 51.951 175.916 52.2567 175.474 52.4781C175.041 52.689 174.546 52.7944 173.987 52.7944ZM174.398 50.9124C174.778 50.9124 175.105 50.8334 175.379 50.6752C175.663 50.5065 175.885 50.2799 176.043 49.9952C176.201 49.7 176.28 49.3679 176.28 48.9989C176.28 48.6193 176.201 48.2872 176.043 48.0025C175.885 47.7179 175.663 47.4964 175.379 47.3383C175.105 47.1696 174.778 47.0853 174.398 47.0853C174.019 47.0853 173.687 47.1696 173.402 47.3383C173.117 47.4964 172.896 47.7231 172.738 48.0183C172.58 48.303 172.5 48.6298 172.5 48.9989C172.5 49.3573 172.58 49.6842 172.738 49.9794C172.896 50.264 173.117 50.4907 173.402 50.6594C173.687 50.8281 174.019 50.9124 174.398 50.9124Z" fill="#0071C2"/>
</svg>
