<svg width="59" height="59" viewBox="0 0 59 59" fill="none" xmlns="http://www.w3.org/2000/svg">
<path d="M50.3957 12.2917C49.4177 12.2917 48.4797 12.6802 47.7882 13.3717C47.0967 14.0633 46.7082 15.0012 46.7082 15.9792V27.0417H44.2498V11.0625C44.2498 10.0845 43.8613 9.14659 43.1698 8.45505C42.4782 7.76351 41.5403 7.37501 40.5623 7.37501C39.5843 7.37501 38.6464 7.76351 37.9549 8.45505C37.2633 9.14659 36.8748 10.0845 36.8748 11.0625V27.0417H34.4165V8.60417C34.4165 7.62619 34.028 6.68826 33.3364 5.99672C32.6449 5.30518 31.707 4.91667 30.729 4.91667C29.751 4.91667 28.8131 5.30518 28.1215 5.99672C27.43 6.68826 27.0415 7.62619 27.0415 8.60417V27.0417H24.5832V13.5208C24.5832 12.5429 24.1947 11.6049 23.5031 10.9134C22.8116 10.2218 21.8736 9.83334 20.8957 9.83334C19.9177 9.83334 18.9797 10.2218 18.2882 10.9134C17.5967 11.6049 17.2082 12.5429 17.2082 13.5208V40.0954L11.7507 31.2454C11.2356 30.4109 10.4101 29.8151 9.45576 29.5892C8.50143 29.3633 7.49646 29.5258 6.66191 30.0408C5.82736 30.5559 5.2316 31.3814 5.0057 32.3357C4.7798 33.2901 4.94225 34.295 5.45732 35.1296L13.5944 48.2571C14.6956 50.0376 16.2333 51.5074 18.0618 52.527C19.8902 53.5466 21.9488 54.0823 24.0423 54.0833H41.7915C45.0514 54.0833 48.1779 52.7883 50.483 50.4832C52.7881 48.1781 54.0832 45.0516 54.0832 41.7917V15.9792C54.0832 15.0012 53.6946 14.0633 53.0031 13.3717C52.3116 12.6802 51.3736 12.2917 50.3957 12.2917Z" fill="white"/>
</svg>
