<svg width="60" height="59" viewBox="0 0 60 59" fill="none" xmlns="http://www.w3.org/2000/svg">
<path d="M52.125 27.6562V49.7812C52.125 50.2702 51.9307 50.7392 51.585 51.085C51.2392 51.4307 50.7702 51.625 50.2812 51.625H37.375C36.886 51.625 36.417 51.4307 36.0713 51.085C35.7255 50.7392 35.5312 50.2702 35.5312 49.7812V37.7969C35.5312 37.5524 35.4341 37.3179 35.2612 37.145C35.0884 36.9721 34.8539 36.875 34.6094 36.875H25.3906C25.1461 36.875 24.9116 36.9721 24.7388 37.145C24.5659 37.3179 24.4688 37.5524 24.4688 37.7969V49.7812C24.4688 50.2702 24.2745 50.7392 23.9287 51.085C23.583 51.4307 23.114 51.625 22.625 51.625H9.71875C9.22976 51.625 8.76079 51.4307 8.41502 51.085C8.06925 50.7392 7.875 50.2702 7.875 49.7812V27.6562C7.87545 26.6784 8.26425 25.7408 8.9559 25.0496L27.3934 6.61215C28.0849 5.92113 29.0224 5.53296 30 5.53296C30.9776 5.53296 31.9151 5.92113 32.6066 6.61215L51.0441 25.0496C51.7357 25.7408 52.1245 26.6784 52.125 27.6562Z" fill="black"/>
</svg>
