<svg width="59" height="59" viewBox="0 0 59 59" fill="none" xmlns="http://www.w3.org/2000/svg">
<path d="M44.2503 7.375C44.8525 7.37508 45.4336 7.59614 45.8836 7.99626C46.3335 8.39637 46.621 8.94772 46.6915 9.54571L46.7087 9.83333V49.1667C46.708 49.7932 46.468 50.3959 46.0379 50.8515C45.6078 51.3071 45.0199 51.5813 44.3944 51.618C43.7689 51.6548 43.153 51.4513 42.6725 51.0491C42.192 50.6469 41.8832 50.0765 41.8092 49.4543L41.792 49.1667V36.875H39.3337C38.7315 36.8749 38.1504 36.6539 37.7004 36.2537C37.2505 35.8536 36.963 35.3023 36.8925 34.7043L36.8753 34.4167V19.6667C36.8753 14.2337 40.5628 7.375 44.2503 7.375ZM29.5003 7.375C30.1025 7.37508 30.6836 7.59614 31.1336 7.99626C31.5835 8.39637 31.871 8.94772 31.9415 9.54571L31.9587 9.83333V22.125C31.9592 24.3054 31.235 26.4242 29.9 28.1482C28.565 29.8721 26.6949 31.1035 24.5837 31.6486V49.1667C24.583 49.7932 24.343 50.3959 23.9129 50.8515C23.4828 51.3071 22.8949 51.5813 22.2694 51.618C21.6439 51.6548 21.028 51.4513 20.5475 51.0491C20.067 50.6469 19.7582 50.0765 19.6842 49.4543L19.667 49.1667V31.6486C17.6396 31.1253 15.8322 29.9685 14.5079 28.3466C13.1836 26.7247 12.4116 24.7225 12.3043 22.6314L12.292 22.125V9.83333C12.2927 9.20675 12.5326 8.60409 12.9627 8.14847C13.3929 7.69285 13.9808 7.41867 14.6063 7.38195C15.2318 7.34523 15.8477 7.54874 16.3282 7.9509C16.8087 8.35306 17.1174 8.92351 17.1915 9.54571L17.2087 9.83333V22.125C17.2087 22.988 17.4359 23.8359 17.8674 24.5833C18.2989 25.3307 18.9196 25.9513 19.667 26.3828V9.83333C19.6677 9.20675 19.9076 8.60409 20.3377 8.14847C20.7679 7.69285 21.3558 7.41867 21.9813 7.38195C22.6068 7.34523 23.2227 7.54874 23.7032 7.9509C24.1837 8.35306 24.4924 8.92351 24.5665 9.54571L24.5837 9.83333L24.5861 26.3828C25.2721 25.9863 25.8522 25.4298 26.2768 24.7608C26.7014 24.0918 26.958 23.33 27.0248 22.5405L27.042 22.125V9.83333C27.042 9.18134 27.301 8.55606 27.762 8.09503C28.223 7.634 28.8483 7.375 29.5003 7.375Z" fill="black"/>
</svg>
